<svg width="22" height="22" viewBox="0 0 22 22" fill="none" xmlns="http://www.w3.org/2000/svg">
<path d="M3.50928 10.7501C3.42485 10.6703 3.32552 10.608 3.21698 10.5665C3.10844 10.5251 2.99281 10.5055 2.87669 10.5088C2.76057 10.5121 2.64623 10.5382 2.5402 10.5857C2.43418 10.6332 2.33854 10.7011 2.25875 10.7855C2.17896 10.8699 2.11658 10.9692 2.07518 11.0778C2.03378 11.1863 2.01416 11.302 2.01744 11.4181C2.02073 11.5342 2.04685 11.6485 2.09433 11.7546C2.1418 11.8606 2.20969 11.9562 2.29413 12.036L10.2537 19.5534C10.4179 19.7086 10.6353 19.7951 10.8612 19.7951C11.0872 19.7951 11.3046 19.7086 11.4688 19.5534L19.4292 12.036C19.5155 11.9568 19.5852 11.8611 19.6342 11.7547C19.6832 11.6483 19.7106 11.5332 19.7148 11.4161C19.7189 11.299 19.6998 11.1823 19.6584 11.0727C19.6171 10.963 19.5544 10.8627 19.474 10.7775C19.3935 10.6923 19.297 10.624 19.1899 10.5764C19.0828 10.5289 18.9673 10.5031 18.8502 10.5005C18.7331 10.498 18.6166 10.5187 18.5075 10.5616C18.3985 10.6044 18.299 10.6685 18.215 10.7501L10.8612 17.6944L3.50928 10.7501Z" fill="#5A4739"/>
</svg>
