<svg width="58" height="59" viewBox="0 0 58 59" fill="none" xmlns="http://www.w3.org/2000/svg">
<circle cx="29" cy="29.2015" r="29" fill="#C7BCA1"/>
<path d="M20.1764 15.3655C18.9884 14.7715 17.6704 15.9015 18.0774 17.1665L20.9354 26.0495C20.9916 26.2242 21.0947 26.38 21.2335 26.4999C21.3723 26.6198 21.5415 26.6993 21.7224 26.7295L33.5914 28.7085C34.1484 28.8015 34.1484 29.6015 33.5914 29.6945L21.7234 31.6725C21.5423 31.7026 21.3729 31.782 21.234 31.9019C21.095 32.0219 20.9917 32.1778 20.9354 32.3525L18.0774 41.2385C17.6704 42.5035 18.9874 43.6335 20.1764 43.0395L45.1704 30.5445C46.2764 29.9915 46.2764 28.4145 45.1704 27.8605L20.1764 15.3655Z" fill="#5A4739"/>
</svg>
