<svg width="24" height="25" viewBox="0 0 24 25" fill="none" xmlns="http://www.w3.org/2000/svg">
<circle cx="11.8613" cy="12.4451" r="11.8613" fill="#5A4739"/>
<path d="M18.2858 8.49137V16.3989C18.2858 16.661 18.1816 16.9124 17.9963 17.0978C17.8109 17.2832 17.5595 17.3873 17.2973 17.3873H9.05003L7.06821 19.1239C7.06583 19.1265 7.06313 19.1288 7.06018 19.1307C6.88269 19.2815 6.65738 19.3642 6.42449 19.3642C6.27948 19.364 6.1363 19.3319 6.00502 19.2703C5.83427 19.1916 5.68981 19.0654 5.5889 18.9068C5.488 18.7481 5.43493 18.5638 5.43605 18.3758V8.49137C5.43605 8.22922 5.54019 7.97781 5.72556 7.79244C5.91093 7.60707 6.16234 7.50293 6.42449 7.50293H17.2973C17.5595 7.50293 17.8109 7.60707 17.9963 7.79244C18.1816 7.97781 18.2858 8.22922 18.2858 8.49137Z" fill="#C7BCA1"/>
</svg>
