<svg width="244" height="100" viewBox="0 0 244 100" fill="none" xmlns="http://www.w3.org/2000/svg">
<ellipse cx="116.325" cy="50.451" rx="102.697" ry="34.4199" fill="#F1D3B3"/>
<path d="M218.22 63.6495C217.589 68.1989 214.217 72.3215 208.322 75.8391C202.437 79.3501 194.177 82.1684 184.095 84.1434C163.939 88.0915 136.716 88.629 107.218 84.7891C77.7193 80.9493 51.6084 73.4692 33.2438 64.507C24.057 60.0237 16.8578 55.1931 12.1387 50.3017C7.41084 45.4013 5.28242 40.5628 5.91345 36.0134C6.54447 31.464 9.9158 27.3415 15.8113 23.8239C21.6959 20.3128 29.956 17.4946 40.0386 15.5196C60.1939 11.5715 87.4168 11.034 116.915 14.8738C146.414 18.7137 172.525 26.1937 190.889 35.156C200.076 39.6393 207.275 44.4699 211.995 49.3613C216.722 54.2617 218.851 59.1001 218.22 63.6495Z" stroke="#5A4739" stroke-width="1.88602"/>
<path d="M240.413 48.4505C240.737 53.0026 238.119 57.7063 232.702 62.3366C227.301 66.9525 219.264 71.3613 209.14 75.3057C188.904 83.1904 160.538 89.1406 128.847 91.2573C97.1565 93.3739 68.216 91.2513 47.0544 86.1317C36.4679 83.5705 27.8822 80.272 21.8785 76.4178C15.8561 72.5516 12.597 68.2403 12.273 63.6883C11.9491 59.1362 14.5666 54.4324 19.9843 49.8022C25.3852 45.1863 33.4223 40.7775 43.5458 36.833C63.7819 28.9483 92.1478 22.9982 123.839 20.8815C155.53 18.7648 184.47 20.8874 205.632 26.0071C216.218 28.5683 224.804 31.8668 230.808 35.721C236.83 39.5871 240.089 43.8984 240.413 48.4505Z" stroke="#5A4739" stroke-width="1.88602"/>
<path d="M90.0068 60.5146V62.8344H79.1434V42.7202H81.6329V60.5146H90.0068ZM100.393 42.4656C102.185 42.4656 103.741 42.9277 105.061 43.8518C106.381 44.7759 107.39 46.0396 108.088 47.6427C108.805 49.2269 109.163 50.9903 109.163 52.9329C109.163 54.8943 108.805 56.6483 108.088 58.1948C107.371 59.7413 106.353 60.9578 105.033 61.8442C103.713 62.7118 102.166 63.1456 100.393 63.1456C98.6204 63.1456 97.0644 62.7024 95.7253 61.8159C94.4051 60.9107 93.3867 59.6848 92.67 58.1382C91.9722 56.5729 91.6233 54.8377 91.6233 52.9329C91.6233 50.9903 91.9816 49.2269 92.6983 47.6427C93.415 46.0396 94.4334 44.7759 95.7536 43.8518C97.0927 42.9277 98.6392 42.4656 100.393 42.4656ZM100.393 44.7854C99.073 44.7854 97.9414 45.1531 96.9984 45.8887C96.0743 46.6054 95.3764 47.5861 94.9049 48.8308C94.4334 50.0567 94.1977 51.4241 94.1977 52.9329C94.1977 54.4417 94.4334 55.7902 94.9049 56.9784C95.3953 58.1665 96.1025 59.1095 97.0267 59.8074C97.9697 60.4863 99.0919 60.8258 100.393 60.8258C101.713 60.8258 102.836 60.4863 103.76 59.8074C104.703 59.1284 105.41 58.1948 105.881 57.0066C106.353 55.7996 106.589 54.4417 106.589 52.9329C106.589 51.4052 106.353 50.0284 105.881 48.8025C105.41 47.5578 104.703 46.5771 103.76 45.8604C102.836 45.1437 101.713 44.7854 100.393 44.7854ZM111.266 52.7914C111.266 50.8111 111.624 49.0383 112.341 47.4729C113.058 45.9075 114.076 44.6816 115.396 43.7952C116.735 42.9088 118.282 42.4656 120.036 42.4656C121.469 42.4656 122.733 42.7485 123.827 43.3143C124.94 43.8801 125.826 44.6816 126.486 45.7189C127.146 46.7374 127.542 47.9161 127.674 49.2552H125.043C124.892 47.8784 124.383 46.794 123.516 46.0018C122.648 45.1909 121.488 44.7854 120.036 44.7854C118.037 44.7854 116.509 45.5303 115.453 47.0203C114.416 48.4914 113.897 50.4151 113.897 52.7914V52.9046C113.954 55.2432 114.529 57.1481 115.623 58.6192C116.717 60.0903 118.244 60.8258 120.206 60.8258C121.809 60.8258 123.035 60.326 123.883 59.3264C124.751 58.3268 125.241 56.9878 125.354 55.3092H121.083V52.9895H127.674V62.8344H125.609L125.354 60.2034C124.204 62.1649 122.45 63.1456 120.093 63.1456C118.32 63.1456 116.773 62.7024 115.453 61.8159C114.133 60.9107 113.114 59.6848 112.398 58.1382C111.681 56.5729 111.304 54.8283 111.266 52.9046V52.7914ZM131.773 42.7485H134.262V62.8344H131.773V42.7485ZM151.026 58.2797V42.7485H153.516V62.8344H150.743L141.832 47.3315V62.8344H139.343V42.7485H142.143L151.026 58.2797Z" fill="#5A4739"/>
</svg>
