<svg width="1253" height="1080" viewBox="0 0 1253 1080" fill="none" xmlns="http://www.w3.org/2000/svg">
<path fill-rule="evenodd" clip-rule="evenodd" d="M701.769 1220.5C605.911 1277.26 478.681 1219.58 375.212 1174.26C288.179 1136.14 235.255 1052.36 166.273 985.959C102.012 924.098 22.2906 878.273 -16.1864 797.484C-57.9669 709.757 -57.2524 612.278 -57.7604 515.556C-58.4333 387.459 -89.1371 247.331 -19.6302 141.829C53.9277 30.1773 185.744 -37.9888 317.848 -54.5692C448.693 -70.9915 600.199 -44.3498 693.8 52.2862C784.847 146.287 710.783 318.074 784.097 426.801C858.94 537.797 1089.81 523.296 1101.11 656.346C1112.09 785.523 898.692 803.829 824.977 907.967C759.313 1000.73 799.013 1162.93 701.769 1220.5Z" fill="#F1D3B3"/>
<path d="M420.046 401C421.543 413.289 419.347 417.885 418.548 419.284C413.957 427.776 403.975 430.374 397.886 431.873C392.396 433.271 382.314 434.87 350.772 427.976C332.205 423.88 327.614 421.582 314.837 421.082C303.957 420.683 295.771 420.483 288.784 425.878C278.303 433.971 278.104 448.957 278.004 453.154C277.904 461.047 279.8 466.742 284.692 478.631C295.672 505.607 298.566 507.605 303.657 521.793C309.447 537.778 313.639 549.368 312.142 564.555C311.044 575.245 307.55 584.537 302.06 598.824C299.864 604.519 296.37 613.012 292.178 626.1C289.183 635.292 287.886 640.587 288.884 647.181C289.283 650.179 290.381 656.873 295.672 662.667C300.962 668.462 307.55 670.161 309.646 670.66C313.938 671.659 318.43 671.659 329.211 670.66C330.708 670.56 333.503 670.261 336.997 669.461C341.389 668.462 345.681 666.564 345.481 665.665C345.282 664.766 340.091 666.564 333.603 664.466C331.606 663.766 327.614 662.468 325.118 658.771C321.924 653.975 323.222 648.38 323.721 646.082C325.517 638.289 331.307 634.193 332.505 633.493C334.701 631.995 338.693 629.397 343.684 630.196C350.073 631.195 353.267 636.99 354.165 638.589C356.661 642.985 356.561 647.181 356.461 650.778C356.262 658.971 354.265 664.166 352.169 667.663C349.773 671.759 347.278 674.357 344.084 675.356C339.991 676.655 336.198 675.856 335.899 676.855C335.699 677.454 336.797 678.154 337.695 678.853C340.989 681.75 341.488 686.146 342.087 690.942C342.886 697.436 341.189 697.936 342.586 702.732C343.185 704.73 344.084 707.927 346.879 709.825C349.374 711.524 352.169 711.424 354.465 711.424C361.053 711.224 368.639 711.024 374.528 711.624C381.316 712.323 380.917 713.522 389.901 714.521C394.392 715.021 397.686 715.021 397.786 715.82C397.886 716.919 391.398 718.518 390.999 718.618C386.307 719.717 383.911 719.417 376.625 720.116C368.939 720.816 367.242 721.415 366.144 722.914C364.946 724.412 364.946 726.111 364.946 729.008C364.946 731.207 365.046 737.501 369.438 743.096C371.534 745.694 373.73 747.192 375.227 748.191C379.02 750.689 380.318 750.19 383.113 752.088C388.204 755.385 390.2 760.78 390.699 762.279C392.296 766.775 391.298 768.773 391.697 774.568C391.897 776.666 392.596 784.659 396.489 791.853C401.479 801.244 409.764 805.64 413.458 807.639C421.743 812.035 429.129 812.734 432.623 813.034C441.207 813.733 447.496 812.135 453.285 810.636C460.273 808.837 463.766 807.938 465.962 805.041C470.554 799.046 467.659 790.154 466.861 787.856C465.264 782.861 462.768 780.063 458.077 774.468C442.904 756.484 466.162 782.161 442.904 755.884C427.033 737.9 424.138 734.903 418.149 728.009C411.062 719.817 405.073 712.923 398.485 703.931C390.699 693.24 379.619 678.054 370.935 656.073C367.142 646.582 363.149 636.291 361.252 621.704C359.855 610.714 357.958 594.628 364.746 576.844C366.942 571.049 370.037 562.956 377.024 554.963C389.901 540.076 390.1 539.877 390.1 539.877C393.594 536.18 395.59 534.282 396.089 530.984C396.888 525.09 392.097 519.994 390.899 518.695C388.703 516.397 386.806 515.298 380.917 512.301C372.332 508.005 366.942 505.507 362.85 503.509C354.665 499.612 351.67 498.114 346.18 496.715C340.989 495.416 337.795 495.316 334.801 496.815C331.606 498.413 330.009 501.211 329.61 501.91C328.911 503.309 327.214 507.006 329.91 516.098C332.106 523.891 333.902 522.992 336.298 530.585C338.394 537.079 338.494 541.675 338.594 549.668C338.594 551.966 338.594 554.064 337.496 556.262C335.699 559.959 332.505 561.657 332.804 562.157C333.303 563.056 339.692 559.959 339.692 559.959C349.374 555.363 355.363 552.465 362.45 546.071C366.443 542.374 373.131 536.38 377.523 526.488C379.12 522.992 379.02 521.993 382.414 504.308C385.908 485.925 387.205 480.629 391.198 474.535C394.891 468.94 398.585 466.242 402.078 464.743C405.971 463.145 409.365 463.145 410.862 463.145C410.862 463.145 423.04 463.145 440.808 459.148C453.485 456.351 462.269 449.857 469.855 444.162C478.54 437.667 480.137 434.37 491.915 426.278C501.598 419.683 506.688 417.785 511.779 418.784C518.168 420.083 521.961 425.179 522.16 425.478C524.856 429.275 525.055 433.271 525.155 436.568C525.854 455.851 523.558 468.94 523.558 468.94C522.859 472.936 521.362 480.929 518.467 491.02C515.373 502.11 514.075 503.509 509.084 519.695C504.992 532.983 504.093 537.778 503.594 540.976C502.596 546.97 501.698 552.565 502.396 559.959C502.995 566.853 504.792 571.848 508.186 581.54C510.182 587.135 510.681 587.934 515.572 599.723C524.856 622.503 521.961 617.208 526.253 626.999C528.449 632.095 529.846 637.59 531.643 642.785C532.342 644.683 533.24 647.381 532.941 650.778C532.541 654.275 531.044 656.873 530.146 658.271C528.349 661.169 526.453 662.767 522.959 665.565C520.264 667.763 516.87 670.461 511.58 673.158C508.585 674.657 504.992 676.455 499.901 677.454C498.503 677.754 494.311 677.954 489.021 677.754C487.124 677.654 484.329 677.454 483.431 676.855C482.233 676.056 481.734 674.457 481.834 673.158C482.133 670.76 484.629 669.761 486.226 669.262C488.222 668.662 490.418 668.562 491.416 668.462C497.805 667.863 502.496 662.667 502.496 662.568C502.296 662.268 497.106 671.06 486.825 673.658C483.531 674.557 479.238 675.656 475.246 673.458C470.754 671.06 468.957 666.864 467.959 663.267C467.26 660.669 466.162 655.774 469.456 649.08C470.554 646.881 472.351 643.984 481.035 639.388C487.423 635.991 489.32 634.393 491.017 631.096C493.013 627.399 491.516 624.002 493.013 623.302C495.01 622.503 499.002 627.299 501.298 630.796C506.489 638.689 507.188 646.782 507.387 649.279C507.587 653.376 507.986 660.469 504.093 667.463C500.001 674.757 491.816 680.651 488.721 682.15C488.422 682.35 487.423 682.75 486.525 683.649C484.728 685.447 483.531 687.945 483.231 689.344C481.834 695.938 481.834 699.035 482.033 703.531C482.133 707.128 482.532 708.127 482.133 711.124C481.834 713.422 481.534 715.62 480.037 717.718C477.741 721.115 474.048 722.115 473.149 722.414C468.258 723.713 464.266 721.615 460.672 720.316C447.197 715.52 434.02 721.415 434.02 721.215C434.02 721.016 443.104 719.217 451.988 720.316C457.278 720.916 462.169 722.015 465.863 726.111C468.458 729.008 471.053 734.304 469.556 739.199C468.059 744.095 462.968 746.793 457.178 749.89C453.285 751.988 452.786 751.588 450.89 753.187C446.498 756.984 445.5 762.679 444.901 765.976C443.902 771.97 445.001 774.668 445.3 780.263C445.5 783.36 445.699 792.752 442.006 801.844C437.015 814.333 426.933 820.827 423.539 822.925C421.343 824.324 414.356 828.42 404.474 829.919C402.478 830.219 400.581 830.318 390.4 830.019C370.636 829.319 367.242 828.42 359.955 830.019C354.365 831.218 348.975 832.516 345.381 837.312C341.688 842.308 341.987 848.302 342.187 851" stroke="#5A4739" stroke-width="3" stroke-miterlimit="10" stroke-linecap="round" stroke-linejoin="round"/>
<path fill-rule="evenodd" clip-rule="evenodd" d="M396.538 1317.32C276.47 1338.09 168.784 1231.98 80.5912 1147.27C6.40862 1076.03 -15.1595 971.802 -59.8958 878.96C-101.571 792.47 -165.284 716.248 -173.24 620.492C-181.879 516.514 -143.277 418.814 -106.219 321.413C-57.1398 192.417 -34.0943 39.9658 77.9667 -39.7655C196.559 -124.144 357.827 -142.772 499.348 -109.447C639.52 -76.4388 784.088 7.66857 842.252 140.21C898.83 269.137 756.357 413.763 789.08 550.779C822.486 690.655 1064.19 763.444 1024.06 901.441C985.091 1035.42 759.777 973.068 643.944 1049.84C540.76 1118.22 518.339 1296.25 396.538 1317.32Z" stroke="#5A4739" stroke-width="2"/>
<path fill-rule="evenodd" clip-rule="evenodd" d="M843.757 992.424C783.03 1085.82 643.417 1090.57 530.582 1095.86C435.672 1100.31 351.072 1048.71 259.79 1019.8C174.754 992.875 82.9781 987.176 12.6521 931.844C-63.7121 871.76 -106.319 784.082 -149.686 697.626C-207.121 583.124 -296.806 471.165 -281.322 345.777C-264.935 213.08 -177.044 93.5089 -66.0095 20.0404C43.9673 -52.7279 191.567 -96.069 318.324 -50.991C441.625 -7.14229 451.464 179.672 565.406 244.587C681.724 310.855 882.194 195.433 951.353 309.657C1018.5 420.555 835.377 531.636 815.516 657.668C797.824 769.936 905.363 897.683 843.757 992.424Z" stroke="#5A4739" stroke-width="4"/>
</svg>
