<svg width="58" height="59" viewBox="0 0 58 59" fill="none" xmlns="http://www.w3.org/2000/svg">
<circle cx="29" cy="29.2015" r="29" fill="#C7BCA1"/>
<path d="M28.9998 10.8682C30.4585 10.8682 31.8575 11.4477 32.8889 12.4791C33.9204 13.5106 34.4998 14.9095 34.4998 16.3682V27.3682C34.4998 28.8269 33.9204 30.2259 32.8889 31.2573C31.8575 32.2888 30.4585 32.8682 28.9998 32.8682C27.5411 32.8682 26.1422 32.2888 25.1107 31.2573C24.0793 30.2259 23.4998 28.8269 23.4998 27.3682V16.3682C23.4998 14.9095 24.0793 13.5106 25.1107 12.4791C26.1422 11.4477 27.5411 10.8682 28.9998 10.8682ZM41.8332 27.3682C41.8332 33.8399 37.0482 39.1749 30.8332 40.0732V45.7016H27.1665V40.0732C20.9515 39.1749 16.1665 33.8399 16.1665 27.3682H19.8332C19.8332 29.7994 20.7989 32.131 22.518 33.85C24.2371 35.5691 26.5687 36.5349 28.9998 36.5349C31.431 36.5349 33.7626 35.5691 35.4816 33.85C37.2007 32.131 38.1665 29.7994 38.1665 27.3682H41.8332Z" fill="#5A4739"/>
</svg>
