<svg width="37" height="37" viewBox="0 0 37 37" fill="none" xmlns="http://www.w3.org/2000/svg">
<path fill-rule="evenodd" clip-rule="evenodd" d="M22.0139 3.31767C21.4435 3.08333 20.7189 3.08333 19.2713 3.08333C17.8237 3.08333 17.0991 3.08333 16.5287 3.31767C15.7694 3.62941 15.1649 4.22997 14.8483 4.98729C14.7034 5.33108 14.6479 5.73346 14.6247 6.31775C14.6145 6.7411 14.4964 7.15483 14.2816 7.51982C14.0669 7.88481 13.7626 8.189 13.3976 8.40362C13.0256 8.61037 12.6075 8.71989 12.182 8.72205C11.7565 8.7242 11.3373 8.61892 10.9633 8.41596C10.4422 8.14154 10.0645 7.99046 9.6914 7.94112C8.87517 7.83395 8.04964 8.05336 7.39432 8.55162C6.90407 8.92471 6.54178 9.54754 5.81874 10.7917C5.09415 12.0358 4.7334 12.6571 4.65169 13.266C4.54378 14.077 4.76578 14.8971 5.26836 15.5462C5.49653 15.8422 5.81874 16.0904 6.31669 16.4018C7.05207 16.8597 7.52382 17.6397 7.52382 18.5C7.52382 19.3603 7.05207 20.1403 6.31824 20.5967C5.81874 20.9096 5.49653 21.1578 5.26682 21.4538C5.01874 21.7744 4.83665 22.141 4.73107 22.5323C4.62549 22.9237 4.59851 23.3321 4.65169 23.734C4.7334 24.3414 5.09415 24.9642 5.81874 26.2083C6.54332 27.4525 6.90407 28.0737 7.39432 28.4484C8.04799 28.9463 8.87432 29.1653 9.6914 29.0589C10.0645 29.0095 10.4422 28.8585 10.9633 28.584C11.3375 28.3808 11.757 28.2754 12.1828 28.2775C12.6086 28.2797 13.027 28.3894 13.3991 28.5964C14.1484 29.028 14.5924 29.822 14.6247 30.6823C14.6479 31.2681 14.7034 31.6689 14.8483 32.0127C15.1628 32.7681 15.7671 33.3694 16.5287 33.6823C17.0991 33.9167 17.8237 33.9167 19.2713 33.9167C20.7189 33.9167 21.4435 33.9167 22.0139 33.6823C22.7733 33.3706 23.3777 32.77 23.6944 32.0127C23.8393 31.6689 23.8948 31.2681 23.9179 30.6823C23.9487 29.822 24.3943 29.0265 25.1451 28.5964C25.517 28.3896 25.9351 28.2801 26.3606 28.278C26.7862 28.2758 27.2053 28.3811 27.5794 28.584C28.1004 28.8585 28.4782 29.0095 28.8512 29.0589C29.6683 29.1668 30.4947 28.9463 31.1483 28.4484C31.6386 28.0753 32.0009 27.4525 32.7239 26.2083C33.4485 24.9642 33.8092 24.3429 33.8909 23.734C33.9439 23.332 33.9167 22.9235 33.8108 22.5322C33.705 22.1408 33.5226 21.7743 33.2743 21.4538C33.0461 21.1578 32.7239 20.9096 32.2259 20.5982C31.4906 20.1403 31.0188 19.3603 31.0188 18.5C31.0188 17.6397 31.4906 16.8597 32.2244 16.4033C32.7239 16.0904 33.0461 15.8422 33.2758 15.5462C33.5239 15.2256 33.706 14.859 33.8116 14.4677C33.9172 14.0763 33.9441 13.6679 33.8909 13.266C33.8092 12.6586 33.4485 12.0358 32.7239 10.7917C31.9993 9.54754 31.6386 8.92625 31.1483 8.55162C30.493 8.05336 29.6675 7.83395 28.8512 7.94112C28.4782 7.99046 28.1004 8.14154 27.5794 8.41596C27.2052 8.61919 26.7857 8.72463 26.3599 8.72247C25.934 8.72031 25.5157 8.61064 25.1435 8.40362C24.7788 8.18881 24.4748 7.88454 24.2603 7.51956C24.0459 7.15458 23.928 6.74095 23.9179 6.31775C23.8948 5.73192 23.8393 5.33108 23.6944 4.98729C23.5377 4.61226 23.3086 4.27178 23.0203 3.9853C22.7319 3.69882 22.39 3.47195 22.0139 3.31767ZM19.2713 23.125C21.8459 23.125 23.9318 21.0545 23.9318 18.5C23.9318 15.9455 21.8444 13.875 19.2713 13.875C16.6967 13.875 14.6109 15.9455 14.6109 18.5C14.6109 21.0545 16.6983 23.125 19.2713 23.125Z" fill="#F1D3B3"/>
</svg>
