<svg width="236" height="238" viewBox="0 0 236 238" fill="none" xmlns="http://www.w3.org/2000/svg">
<g clip-path="url(#clip0_10_1480)">
<path fill-rule="evenodd" clip-rule="evenodd" d="M119.107 90.9592C119.671 85.964 118.438 80.9406 114.775 76.209C103.445 61.5725 88.0775 59.9469 72.6584 65.0429C50.144 72.4847 27.5439 94.4633 18.0818 109.831C17.6328 110.558 17.8584 111.523 18.5803 111.984C19.3037 112.448 20.2539 112.235 20.7029 111.508C29.8857 96.5917 51.7988 75.2355 73.6488 68.0116C87.8069 63.3329 101.955 64.6744 112.36 78.1191C115.46 82.1184 116.486 86.3609 116.02 90.5858C113.287 90.2841 110.583 90.0644 107.912 89.9292C100.54 89.5579 81.5295 92.1857 69.4348 98.8487C60.76 103.631 55.645 110.477 59.496 119.453C61.6377 124.442 66.1738 126.861 71.9683 127.138C79.9345 127.524 90.4022 123.754 99.4393 117.65C106.964 112.569 113.489 105.888 116.818 98.7714C117.547 97.2057 118.13 95.6211 118.538 94.0258C156.37 98.9394 198.084 119.445 223.4 147.483C223.979 148.119 224.952 148.174 225.576 147.593C226.202 147.017 226.239 146.028 225.663 145.39C199.932 116.898 157.585 96.0279 119.107 90.9592ZM115.423 93.6552C112.854 93.3774 110.311 93.1745 107.798 93.0485C100.734 92.695 82.5224 95.2127 70.9344 101.597C63.8224 105.514 59.1623 110.883 62.3181 118.24C63.9778 122.102 67.5886 123.802 72.0749 124.022C77.0103 124.258 82.9583 122.731 88.8702 120.023C97.8457 115.912 106.73 109.069 111.846 101.283C113.468 98.8174 114.705 96.254 115.423 93.6552Z" fill="#8B7E74"/>
<path fill-rule="evenodd" clip-rule="evenodd" d="M166.321 140.096C184.273 136.338 206.598 140.397 223.772 147.514C224.562 147.841 225.458 147.459 225.771 146.663C226.083 145.866 225.699 144.952 224.909 144.625C207.198 137.283 184.169 133.165 165.662 137.038C164.834 137.211 164.307 138.037 164.49 138.883C164.671 139.725 165.493 140.269 166.321 140.096Z" fill="#8B7E74"/>
<path fill-rule="evenodd" clip-rule="evenodd" d="M225.135 144.317C213.108 134.576 204.472 115.724 202.448 100.28C202.336 99.4231 201.561 98.809 200.719 98.915C199.875 99.0173 199.282 99.7932 199.394 100.65C201.515 116.829 210.631 136.54 223.231 146.747C223.898 147.289 224.87 147.182 225.396 146.514C225.921 145.841 225.805 144.858 225.135 144.317Z" fill="#8B7E74"/>
</g>
<defs>
<clipPath id="clip0_10_1480">
<rect width="184.087" height="180.696" fill="white" transform="translate(167.868) rotate(68.2811)"/>
</clipPath>
</defs>
</svg>
