<svg width="72" height="76" viewBox="0 0 72 76" fill="none" xmlns="http://www.w3.org/2000/svg">
<path d="M51.0781 64.22C48.1521 67.2283 44.9574 66.7533 41.8821 65.3283C38.6277 63.8717 35.642 63.8083 32.2084 65.3283C27.909 67.2917 25.6398 66.7217 23.0721 64.22C8.50183 48.2917 10.6515 24.035 27.1924 23.1483C31.2231 23.37 34.0297 25.4917 36.3884 25.6817C39.9115 24.9217 43.2854 22.7367 47.0474 23.0217C51.5558 23.4017 54.9595 25.3017 57.1988 28.7217C47.8834 34.6433 50.0928 47.6583 58.632 51.3C56.9301 56.05 54.7207 60.7683 51.0483 64.2517L51.0781 64.22ZM36.0898 22.9583C35.642 15.8967 41.0461 10.07 47.2564 9.5C48.1223 17.67 40.2698 23.75 36.0898 22.9583Z" fill="#454545"/>
</svg>
